<svg version="1.1" id="Layer_1" xmlns="http://www.w3.org/2000/svg" xmlns:xlink="http://www.w3.org/1999/xlink" x="0px" y="0px"
	 width="100%" viewBox="0 0 500 500" enable-background="new 0 0 500 500" xml:space="preserve">
<path fill="#000000" opacity="1.000000" stroke="none" 
	d="
M292.000000,501.000000 
	C194.666687,501.000000 97.833382,501.000000 1.000052,501.000000 
	C1.000035,334.333405 1.000035,167.666794 1.000017,1.000141 
	C167.666565,1.000094 334.333130,1.000094 500.999756,1.000047 
	C500.999847,167.666519 500.999847,334.333038 500.999939,500.999786 
	C431.500000,501.000000 362.000000,501.000000 292.000000,501.000000 
M224.936218,224.479950 
	C224.650909,224.273071 224.365601,224.066208 223.848282,223.218323 
	C221.913437,222.111023 219.978592,221.003723 217.726456,219.246689 
	C215.535492,218.467941 213.344513,217.689194 210.607559,216.235611 
	C206.951508,216.161331 203.276031,215.815750 199.643890,216.075684 
	C194.058121,216.475403 188.913269,218.073669 184.768387,222.289429 
	C177.681747,229.497284 175.766434,238.339432 175.747604,248.729797 
	C175.482864,251.437698 175.218140,254.145584 174.263214,257.342529 
	C174.063278,259.780151 173.867386,262.218140 173.662628,264.655365 
	C173.073273,271.670624 173.264267,278.423798 180.129028,283.665283 
	C180.698959,283.866791 181.268875,284.068329 181.977921,284.168518 
	C181.977921,284.168518 181.876999,284.029083 181.664551,284.755920 
	C187.493515,291.043701 194.957916,291.550049 202.879623,291.082642 
	C217.604843,290.213928 226.130310,281.519104 227.917847,268.483734 
	C228.092865,267.207489 227.478363,265.628113 226.769196,264.472473 
	C225.780426,262.861206 224.356766,261.516754 222.171432,259.975220 
	C217.550491,259.973236 212.908554,259.723358 208.320724,260.112061 
	C206.839142,260.237640 205.259186,261.834045 204.149017,263.123383 
	C202.262863,265.313995 200.713623,267.794739 198.452728,270.138947 
	C197.684891,269.714050 196.917038,269.289154 196.396255,268.118042 
	C197.925034,259.388062 199.476990,250.662064 200.971054,241.926163 
	C201.557114,238.499405 203.398315,236.746246 206.998840,237.850281 
	C206.844772,240.701630 206.977081,243.334793 211.019852,243.856033 
	C211.469757,244.508545 211.903351,245.715302 212.372055,245.729080 
	C217.962387,245.893631 223.559433,245.947006 229.150024,245.820496 
	C229.766190,245.806549 230.856003,244.509995 230.875320,243.785583 
	C231.059982,236.865494 232.378387,229.527573 225.016144,224.987610 
	C225.016144,224.987610 225.084702,225.000214 224.936218,224.479950 
M251.865402,288.681396 
	C252.246490,285.281769 252.378632,281.830261 253.073242,278.495941 
	C253.895630,274.548309 252.861877,269.895569 257.031097,267.854828 
	C257.975647,271.917114 258.920197,275.979370 259.971100,280.871429 
	C260.220520,283.634399 258.906006,287.406921 264.020416,287.880890 
	C265.644226,288.587494 267.241943,289.821533 268.896667,289.903381 
	C274.193329,290.165466 279.511139,290.000732 284.995361,290.000732 
	C281.101929,275.232239 277.513794,261.851227 274.122803,248.420441 
	C273.765778,247.006348 274.093719,244.962250 274.923126,243.790161 
	C277.556091,240.069244 280.652313,236.680481 283.426788,233.054184 
	C286.206268,229.421326 288.814240,225.657272 291.587585,221.826126 
	C289.461853,221.023483 288.163574,220.533279 286.931671,219.181931 
	C280.553223,218.835327 273.875610,217.227585 267.914734,218.641510 
	C264.632751,219.420013 262.555847,225.278961 259.198853,228.598221 
	C260.256622,220.819275 261.350372,213.044952 262.353973,205.259033 
	C262.742035,202.248581 262.925812,199.211807 263.204254,196.169525 
	C261.429932,196.029739 260.283752,195.939438 259.120422,194.982742 
	C258.249664,193.992004 257.421295,192.192383 256.501160,192.144180 
	C251.246368,191.868881 245.969772,192.010513 239.632782,192.010513 
	C238.467163,202.800583 237.320847,213.412033 236.062027,224.856201 
	C234.752487,233.915207 233.442932,242.974213 231.993607,252.910233 
	C231.377930,258.283081 230.762268,263.655945 230.012360,269.899261 
	C229.694824,272.319336 229.244675,274.731140 229.093781,277.161560 
	C228.911270,280.101685 228.982025,283.057556 229.155792,286.701538 
	C230.092926,286.898987 231.030075,287.096405 231.908035,287.834473 
	C231.955933,288.191254 232.003830,288.548065 232.233658,289.793579 
	C238.542938,289.553467 244.852203,289.313385 251.865402,288.681396 
M317.323273,289.843292 
	C331.238342,289.899689 345.153442,289.969482 359.068512,289.971558 
	C359.738647,289.971649 360.408813,289.375153 361.789520,288.643311 
	C362.189026,284.264587 362.752625,279.889343 362.845917,275.504120 
	C362.863953,274.654846 361.045807,273.766510 360.025330,272.067627 
	C358.745575,271.044312 357.584717,269.387695 356.162994,269.120850 
	C352.447601,268.423492 348.618134,268.333954 344.999908,267.306732 
	C349.294525,261.743713 353.354553,255.978348 357.937653,250.664124 
	C365.194000,242.250107 370.569000,233.297760 368.794037,221.993668 
	C367.370117,220.951508 366.128754,220.042984 364.996246,218.308121 
	C363.666321,217.927750 362.336365,217.547363 360.159241,217.019470 
	C358.442627,217.067093 356.726013,217.114716 354.081848,217.010361 
	C344.479156,217.003922 334.873718,216.883408 325.276703,217.113678 
	C323.832367,217.148346 321.453308,218.600372 321.185608,219.778336 
	C320.360382,223.409363 320.378387,227.228165 320.011292,230.968369 
	C319.719421,233.942093 321.027924,235.295547 324.026428,235.971420 
	C325.128265,236.645050 326.159515,237.695618 327.345886,237.917694 
	C330.249786,238.461258 333.225311,238.622192 335.899261,239.590652 
	C333.241028,243.319839 330.582794,247.049042 327.295837,251.089523 
	C318.554016,261.432098 310.487335,272.035553 313.595795,286.911621 
	C314.614502,286.993439 315.773010,287.086487 316.945740,287.786499 
	C316.994690,288.186981 317.043671,288.587463 317.323273,289.843292 
M112.305206,288.198761 
	C112.873459,283.933533 113.527946,279.676300 113.925957,275.395233 
	C113.993118,274.672882 113.042595,273.764282 112.406021,273.088989 
	C111.373146,271.993408 110.211060,271.019623 108.710464,269.185638 
	C100.840515,269.068390 92.970566,268.951141 85.058746,267.994598 
	C86.020554,261.072845 87.024895,254.156647 87.933144,247.227875 
	C89.014946,238.975159 90.068764,230.717972 91.034157,222.450989 
	C92.015251,214.049484 92.873917,205.633698 93.798103,197.114395 
	C92.538498,196.348740 91.294487,195.592560 89.857124,194.092056 
	C88.492020,193.406326 87.175323,192.285614 85.751541,192.127167 
	C82.955040,191.815964 80.098976,192.036636 77.267570,192.043213 
	C70.863884,192.058090 70.741653,192.476746 69.991432,199.109406 
	C68.898483,208.771957 67.368088,218.384995 65.953758,228.845779 
	C65.970955,230.229034 65.988159,231.612305 65.991463,233.751862 
	C66.029831,234.507126 66.068207,235.262390 65.694870,236.710831 
	C64.186691,248.163803 62.678513,259.616760 61.075874,271.910461 
	C60.724846,275.992920 60.279194,280.071838 60.126724,284.161713 
	C60.104340,284.762177 61.474846,285.414551 62.318748,286.636078 
	C62.798946,287.431976 63.279144,288.227875 64.253593,289.778687 
	C79.720322,289.856750 95.187027,289.943329 110.653839,289.967957 
	C111.075577,289.968628 111.498375,289.302429 112.305206,288.198761 
M290.482025,286.983795 
	C290.482025,286.983795 290.960083,287.110687 291.031342,287.919769 
	C291.504181,288.569000 291.960754,289.768616 292.452362,289.783142 
	C297.944550,289.945312 303.444916,290.014130 308.934875,289.843475 
	C309.644989,289.821381 310.798431,288.370544 310.915192,287.473297 
	C311.736664,281.161560 312.259064,274.811462 313.034698,268.492981 
	C313.928253,261.213379 315.023285,253.958740 315.959045,246.684036 
	C317.039581,238.283569 318.041779,229.873016 319.065979,221.564575 
	C317.437714,220.999374 316.129089,220.545151 314.944672,219.268158 
	C313.863464,218.507172 312.807800,217.135117 311.696686,217.088608 
	C306.247131,216.860565 300.782806,216.985168 295.259247,216.985168 
	C294.153290,225.048035 292.973846,232.768646 292.067169,240.521179 
	C291.270386,247.334122 290.779083,254.182800 290.020660,261.863373 
	C289.403595,268.245483 288.786530,274.627625 288.056458,281.510742 
	C288.094147,281.677765 288.131866,281.844757 287.871643,282.617615 
	C288.584869,284.022369 289.298096,285.427124 290.482025,286.983795 
M147.496613,287.025787 
	C147.496613,287.025787 147.911240,287.023254 147.987167,287.902161 
	C148.291153,288.569397 148.579712,289.809723 148.901443,289.818390 
	C154.207672,289.961365 159.534485,290.175964 164.814606,289.793457 
	C165.962524,289.710327 167.664322,287.468872 167.874237,286.039795 
	C168.563629,281.346558 168.541473,276.554138 169.058411,271.828918 
	C169.747116,265.533722 170.694794,259.267059 171.513916,252.985870 
	C172.878860,242.519516 174.230087,232.051376 175.565933,221.747086 
	C173.493591,221.058807 172.181351,220.622971 170.994507,219.455292 
	C170.376877,218.828613 169.772720,217.674057 169.139511,217.657913 
	C163.553757,217.515427 157.962860,217.575272 152.284576,217.575272 
	C151.152817,225.635178 150.009140,232.981171 149.116821,240.357544 
	C148.210129,247.852646 147.551285,255.377731 146.224960,263.324646 
	C144.786896,265.594696 143.348831,267.864746 141.066971,270.041412 
	C141.203674,263.029602 140.934891,255.980362 141.577408,249.015198 
	C142.423813,239.839874 143.986115,230.730591 145.240616,221.592911 
	C144.723190,221.743500 144.205780,221.894073 143.688354,222.044647 
	C142.741165,220.555237 141.859543,219.016678 140.803864,217.608597 
	C140.515244,217.223602 139.704178,217.230331 138.197235,217.023468 
	C132.998993,217.363327 127.800758,217.703186 122.044350,218.079544 
	C120.708984,227.366730 119.438766,236.200821 118.083160,245.932510 
	C117.501015,250.772202 116.549637,255.602402 116.425179,260.453827 
	C116.248329,267.347473 114.130516,274.419098 117.801575,281.807281 
	C119.475357,283.226532 121.149132,284.645752 123.153549,286.699493 
	C131.863678,292.497986 140.703033,292.645996 147.496613,287.025787 
M316.408813,191.809158 
	C315.192932,190.577469 314.193939,188.838181 312.720734,188.208694 
	C308.191284,186.273285 299.188782,189.505463 297.135193,193.479797 
	C295.365631,196.904404 297.615295,206.306503 301.225952,209.757858 
	C308.522064,214.735535 310.832642,215.771622 316.273193,211.282166 
	C324.108124,204.816895 324.363464,199.918304 316.408813,191.809158 
M417.899139,224.303421 
	C414.614471,222.158157 411.329803,220.012894 407.654419,217.159134 
	C401.772919,216.779419 395.805328,215.591324 390.029724,216.206238 
	C380.981201,217.169601 373.063324,222.210632 370.478210,230.711090 
	C367.544647,240.357208 367.462555,250.870529 366.004608,261.930725 
	C365.994934,264.408691 365.716217,266.922638 366.041748,269.355774 
	C366.476471,272.605011 367.380280,275.791473 368.077850,279.689453 
	C370.703003,281.853027 373.328156,284.016602 376.215118,286.839417 
	C381.365082,291.895172 387.904633,290.876740 394.210083,291.015930 
	C410.277191,291.370697 420.246307,279.263489 421.047333,264.408112 
	C421.451141,256.918884 421.987549,249.395004 423.180603,242.002441 
	C424.260773,235.309494 422.947418,229.733810 417.899139,224.303421 
z"/>
<path fill="#B3B2B2" opacity="1.000000" stroke="none" 
	d="
M316.931488,287.179535 
	C315.773010,287.086487 314.614502,286.993439 313.595795,286.911621 
	C310.487335,272.035553 318.554016,261.432098 327.619812,251.296432 
	C327.353607,254.057587 326.763428,256.611816 326.173279,259.166077 
	C333.612274,254.163361 340.636169,249.110794 345.882874,242.621353 
	C347.614502,240.479584 349.512970,238.826752 351.437744,237.008789 
	C353.476135,235.083542 355.125458,232.716751 357.282166,230.956146 
	C358.901337,229.634338 361.054291,228.966354 362.979797,228.408432 
	C362.463593,230.845825 362.470978,233.268021 361.323425,234.855179 
	C354.287872,244.585876 347.045837,254.169571 339.752747,263.710663 
	C337.004852,267.305573 337.416168,268.779205 341.970581,270.371765 
	C339.590881,274.078033 337.157654,277.373566 334.898438,280.784302 
	C334.053040,282.060547 333.612793,283.605225 332.660004,285.274658 
	C330.541840,285.673401 328.747223,285.786499 326.962097,285.984985 
	C323.615662,286.357056 320.274719,286.778595 316.931488,287.179535 
z"/>
<path fill="#878686" opacity="1.000000" stroke="none" 
	d="
M259.935608,228.847412 
	C262.555847,225.278961 264.632751,219.420013 267.914734,218.641510 
	C273.875610,217.227585 280.553223,218.835327 286.558411,219.627304 
	C284.883484,221.283569 283.393616,222.347473 282.312958,223.731003 
	C277.847046,229.448410 273.505066,235.262604 268.896118,240.831757 
	C268.465393,239.476593 268.256073,238.330917 267.979584,236.817749 
	C266.945557,237.365921 266.254028,237.534454 265.860443,237.971375 
	C261.292542,243.041977 256.892029,248.269455 252.192719,253.213516 
	C248.941208,256.634369 245.216965,259.601349 241.858429,262.927124 
	C240.362457,264.408508 239.133377,266.201904 237.998978,267.990601 
	C237.263351,269.150574 236.917923,270.558014 236.321701,272.043976 
	C233.915268,270.868958 232.030945,269.948883 230.146606,269.028809 
	C230.762268,263.655945 231.377930,258.283081 232.342026,252.593445 
	C233.732407,251.778458 234.907394,251.449966 235.794724,250.754471 
	C241.551285,246.242584 244.999039,238.874283 252.967896,237.205109 
	C253.144104,237.565582 253.199402,237.743301 253.319962,237.827286 
	C253.440170,237.911011 253.731903,237.973465 253.767639,237.921341 
	C255.835587,234.904877 257.884705,231.875519 259.935608,228.847412 
z"/>
<path fill="#C0BFBF" opacity="1.000000" stroke="none" 
	d="
M366.140808,261.006836 
	C367.462555,250.870529 367.544647,240.357208 370.478210,230.711090 
	C373.063324,222.210632 380.981201,217.169601 390.029724,216.206238 
	C395.805328,215.591324 401.772919,216.779419 407.789062,217.862839 
	C404.283112,223.042313 400.642456,227.518097 396.582397,231.997345 
	C390.828705,231.356186 387.773956,233.695267 386.862244,239.105408 
	C386.550995,239.520248 386.626556,239.782669 386.965698,240.387360 
	C386.647156,242.853897 386.322784,244.922989 385.635681,247.005157 
	C381.417572,250.276596 377.676605,253.685532 373.662384,256.734711 
	C371.386566,258.463409 368.662811,259.602295 366.140808,261.006836 
z"/>
<path fill="#8D8C8C" opacity="1.000000" stroke="none" 
	d="
M230.079498,269.464050 
	C232.030945,269.948883 233.915268,270.868958 236.321701,272.043976 
	C236.917923,270.558014 237.263351,269.150574 237.998978,267.990601 
	C239.133377,266.201904 240.362457,264.408508 241.858429,262.927124 
	C245.216965,259.601349 248.941208,256.634369 252.192719,253.213516 
	C256.892029,248.269455 261.292542,243.041977 265.860443,237.971375 
	C266.254028,237.534454 266.945557,237.365921 267.979584,236.817749 
	C268.256073,238.330917 268.465393,239.476593 268.892609,241.242249 
	C270.124756,246.908066 271.139069,251.953888 271.758148,256.998596 
	C269.175629,258.229828 267.040466,259.569244 264.787170,260.665985 
	C262.277832,261.887329 259.661011,262.887878 257.047760,263.627625 
	C256.563660,261.748199 256.122803,260.225677 255.181168,256.973816 
	C253.810715,259.098541 252.762985,260.105316 252.456055,261.302063 
	C250.844788,267.584564 249.016922,273.855927 248.079666,280.250671 
	C247.493118,284.252686 246.434677,286.351898 242.068253,286.024475 
	C238.786606,285.778351 235.470642,285.989716 231.765320,285.967896 
	C230.554855,285.961121 229.749008,285.983856 228.943176,286.006592 
	C228.982025,283.057556 228.911270,280.101685 229.093781,277.161560 
	C229.244675,274.731140 229.694824,272.319336 230.079498,269.464050 
z"/>
<path fill="#636161" opacity="1.000000" stroke="none" 
	d="
M141.910767,270.134796 
	C143.348831,267.864746 144.786896,265.594696 146.850555,263.062592 
	C149.039536,260.973297 150.630936,259.169128 152.160782,257.314240 
	C155.957825,252.710327 159.636932,248.003983 163.582520,243.532104 
	C164.375626,242.633209 166.138138,242.589645 167.496490,242.590973 
	C166.991257,247.036118 166.443222,251.041992 165.673462,255.313461 
	C165.361923,257.742981 165.272110,259.906921 165.188507,262.441223 
	C165.066055,263.538940 164.937378,264.266296 164.457947,265.009155 
	C155.923019,268.855835 150.112503,275.323486 144.482269,282.333496 
	C139.524994,285.071808 134.877792,287.648712 129.143158,286.682617 
	C127.060829,286.331787 124.931038,286.262665 122.822906,286.065002 
	C121.149132,284.645752 119.475357,283.226532 118.037796,281.275787 
	C122.547569,277.135529 126.821129,273.526764 131.397141,269.662628 
	C131.194321,269.032623 130.766602,267.704102 130.146637,265.778473 
	C131.911514,265.461426 133.283081,265.215027 134.766495,265.340607 
	C135.398666,270.086975 137.676620,271.666321 141.910767,270.134796 
z"/>
<path fill="#979696" opacity="1.000000" stroke="none" 
	d="
M290.152832,261.015686 
	C290.779083,254.182800 291.270386,247.334122 292.067169,240.521179 
	C292.973846,232.768646 294.153290,225.048035 295.259247,216.985168 
	C300.782806,216.985168 306.247131,216.860565 311.696686,217.088608 
	C312.807800,217.135117 313.863464,218.507172 314.652740,219.971588 
	C313.163269,229.097107 311.965729,237.519196 310.427490,245.968430 
	C307.066956,248.640732 304.249664,251.577805 300.972412,253.852036 
	C297.426849,256.312500 296.453217,262.760956 290.152832,261.015686 
z"/>
<path fill="#323030" opacity="1.000000" stroke="none" 
	d="
M61.170330,271.069733 
	C62.678513,259.616760 64.186691,248.163803 66.242554,236.301498 
	C72.259270,231.452682 77.728310,227.013214 83.359703,222.441940 
	C83.843491,224.302490 84.323425,226.148209 84.845726,228.408997 
	C84.566216,231.602112 84.295593,234.387283 83.913185,237.156998 
	C82.586334,246.767197 81.220665,256.372009 79.527428,265.953491 
	C75.625717,262.680023 72.903114,263.380859 70.631126,267.528015 
	C68.550842,271.325287 65.314407,272.534332 61.170330,271.069733 
z"/>
<path fill="#2A2828" opacity="1.000000" stroke="none" 
	d="
M84.803360,227.993942 
	C84.323425,226.148209 83.843491,224.302490 83.359703,222.441940 
	C77.728310,227.013214 72.259270,231.452682 66.448410,235.954910 
	C66.068207,235.262390 66.029831,234.507126 66.240044,233.124725 
	C66.333817,231.004776 66.179001,229.511963 66.024193,228.019150 
	C67.368088,218.384995 68.898483,208.771957 69.991432,199.109406 
	C70.741653,192.476746 70.863884,192.058090 77.267570,192.043213 
	C80.098976,192.036636 82.955040,191.815964 85.751541,192.127167 
	C87.175323,192.285614 88.492020,193.406326 89.595955,194.670822 
	C87.824310,206.164368 86.313843,217.079163 84.803360,227.993942 
z"/>
<path fill="#525252" opacity="1.000000" stroke="none" 
	d="
M134.654663,264.968628 
	C133.283081,265.215027 131.911514,265.461426 130.146637,265.778473 
	C130.766602,267.704102 131.194321,269.032623 131.397141,269.662628 
	C126.821129,273.526764 122.547569,277.135529 117.963486,280.926208 
	C114.130516,274.419098 116.248329,267.347473 116.425179,260.453827 
	C116.549637,255.602402 117.501015,250.772202 118.492615,245.472748 
	C120.736626,244.043701 122.868988,243.400299 124.351387,242.045609 
	C129.326172,237.499573 134.069107,232.699814 138.939102,228.419617 
	C137.536499,240.884262 136.095581,252.926437 134.654663,264.968628 
z"/>
<path fill="#D3D2D2" opacity="1.000000" stroke="none" 
	d="
M375.953278,286.180206 
	C373.328156,284.016602 370.703003,281.853027 368.404297,279.247559 
	C373.012207,274.213135 377.240997,269.569031 381.629425,265.081085 
	C382.324402,264.370331 383.739471,264.363708 384.861023,264.425659 
	C385.409210,266.559174 385.917908,268.298584 386.426636,270.037994 
	C387.294403,269.630829 388.162170,269.223633 389.362610,268.934570 
	C391.780518,268.005096 395.042023,267.440948 395.711670,265.811584 
	C397.212982,262.158813 397.425659,257.976410 398.516052,253.992432 
	C402.290955,251.235855 405.689819,248.467117 409.141754,245.766235 
	C412.085388,243.463028 415.090057,241.237823 418.059082,239.427582 
	C417.655121,244.922256 417.259796,249.967468 416.508240,255.023254 
	C415.377899,255.284149 414.392578,255.313751 413.863434,255.820084 
	C410.002930,259.514221 406.246124,263.316437 402.431458,267.058899 
	C400.430084,269.022369 397.579437,270.574005 396.511108,272.942566 
	C394.110443,278.264923 390.983124,281.872223 384.501221,281.141846 
	C384.698975,283.145782 384.842651,284.601471 384.568848,286.062622 
	C381.418701,286.105469 378.686005,286.142853 375.953278,286.180206 
z"/>
<path fill="#525252" opacity="1.000000" stroke="none" 
	d="
M167.453690,242.151733 
	C166.138138,242.589645 164.375626,242.633209 163.582520,243.532104 
	C159.636932,248.003983 155.957825,252.710327 152.160782,257.314240 
	C150.630936,259.169128 149.039536,260.973297 147.130035,262.845093 
	C147.551285,255.377731 148.210129,247.852646 149.116821,240.357544 
	C150.009140,232.981171 151.152817,225.635178 152.284576,217.575272 
	C157.962860,217.575272 163.553757,217.515427 169.139511,217.657913 
	C169.772720,217.674057 170.376877,218.828613 170.677795,220.113754 
	C169.391953,227.898727 168.422821,235.025223 167.453690,242.151733 
z"/>
<path fill="#727171" opacity="1.000000" stroke="none" 
	d="
M196.149200,268.864258 
	C196.917038,269.289154 197.684891,269.714050 198.730133,270.562622 
	C199.714050,276.725433 196.875656,279.778290 191.591858,281.399658 
	C189.506485,282.039581 187.711090,283.624512 185.398224,284.676636 
	C183.967514,284.392426 182.922256,284.210754 181.876999,284.029083 
	C181.876999,284.029083 181.977921,284.168518 181.767334,283.930298 
	C180.973694,283.480225 180.390640,283.268372 179.807602,283.056519 
	C173.264267,278.423798 173.073273,271.670624 173.662628,264.655365 
	C173.867386,262.218140 174.063278,259.780151 174.642914,257.472565 
	C176.543655,262.013916 178.824524,259.766632 180.454437,257.949982 
	C185.422638,252.412674 190.166260,246.673828 195.024155,241.441681 
	C194.206345,248.388016 193.196976,254.891174 192.605103,261.432098 
	C192.394363,263.761017 193.111435,266.201111 193.646301,268.535187 
	C193.711807,268.821045 195.278305,268.762970 196.149200,268.864258 
z"/>
<path fill="#827F7F" opacity="1.000000" stroke="none" 
	d="
M185.783661,284.779144 
	C187.711090,283.624512 189.506485,282.039581 191.591858,281.399658 
	C196.875656,279.778290 199.714050,276.725433 199.015167,270.569946 
	C200.713623,267.794739 202.262863,265.313995 204.149017,263.123383 
	C205.259186,261.834045 206.839142,260.237640 208.320724,260.112061 
	C212.908554,259.723358 217.550491,259.973236 222.612701,260.451599 
	C222.884323,280.716309 202.576996,293.711975 185.783661,284.779144 
z"/>
<path fill="#E2ACAA" opacity="1.000000" stroke="none" 
	d="
M376.084198,286.509827 
	C378.686005,286.142853 381.418701,286.105469 385.033722,286.072998 
	C387.410248,286.082123 388.923035,285.934784 390.395782,286.114838 
	C400.938202,287.403564 412.461517,279.506287 415.046936,266.758972 
	C415.833618,262.880219 416.268463,258.930115 416.864441,255.012680 
	C417.259796,249.967468 417.655121,244.922256 418.297424,239.121521 
	C418.279205,235.369614 417.924988,232.377319 417.786835,229.375092 
	C417.719269,227.907562 418.053864,226.421524 418.206421,224.943863 
	C422.947418,229.733810 424.260773,235.309494 423.180603,242.002441 
	C421.987549,249.395004 421.451141,256.918884 421.047333,264.408112 
	C420.246307,279.263489 410.277191,291.370697 394.210083,291.015930 
	C387.904633,290.876740 381.365082,291.895172 376.084198,286.509827 
z"/>
<path fill="#727171" opacity="1.000000" stroke="none" 
	d="
M236.174530,224.023499 
	C237.320847,213.412033 238.467163,202.800583 239.632782,192.010513 
	C245.969772,192.010513 251.246368,191.868881 256.501160,192.144180 
	C257.421295,192.192383 258.249664,193.992004 258.848511,195.695374 
	C257.761841,200.956955 256.947083,205.505905 255.816208,210.197952 
	C252.485947,213.061188 249.683334,216.078812 246.396805,218.415894 
	C243.250946,220.652939 239.602234,222.182816 236.174530,224.023499 
z"/>
<path fill="#827F7F" opacity="1.000000" stroke="none" 
	d="
M236.118286,224.439850 
	C239.602234,222.182816 243.250946,220.652939 246.396805,218.415894 
	C249.683334,216.078812 252.485947,213.061188 255.842789,210.631897 
	C255.445541,216.288635 254.705612,221.654495 253.840607,227.112000 
	C253.534973,227.506897 253.600525,227.761551 253.928833,228.374557 
	C253.588852,231.514786 253.232208,234.248016 252.875580,236.981262 
	C244.999039,238.874283 241.551285,246.242584 235.794724,250.754471 
	C234.907394,251.449966 233.732407,251.778458 232.411911,252.154938 
	C233.442932,242.974213 234.752487,233.915207 236.118286,224.439850 
z"/>
<path fill="#454545" opacity="1.000000" stroke="none" 
	d="
M61.123100,271.490112 
	C65.314407,272.534332 68.550842,271.325287 70.631126,267.528015 
	C72.903114,263.380859 75.625717,262.680023 79.599106,266.345032 
	C79.636108,270.994080 82.671463,269.595612 85.266968,269.770325 
	C88.473946,269.931580 91.227463,269.993622 93.929230,270.393311 
	C89.595367,275.784424 85.313240,280.837860 80.564636,285.954071 
	C74.132408,286.025513 68.166641,286.034210 62.200871,286.042908 
	C61.474846,285.414551 60.104340,284.762177 60.126724,284.161713 
	C60.279194,280.071838 60.724846,275.992920 61.123100,271.490112 
z"/>
<path fill="#A5A4A4" opacity="1.000000" stroke="none" 
	d="
M323.984283,235.111954 
	C321.027924,235.295547 319.719421,233.942093 320.011292,230.968369 
	C320.378387,227.228165 320.360382,223.409363 321.185608,219.778336 
	C321.453308,218.600372 323.832367,217.148346 325.276703,217.113678 
	C334.873718,216.883408 344.479156,217.003922 354.528839,217.441711 
	C354.489197,218.883942 354.196777,220.065918 353.482758,220.876495 
	C350.146698,224.663666 346.746033,228.398117 343.246552,232.034088 
	C342.391937,232.922028 341.077179,233.367081 339.510162,234.009399 
	C334.025635,234.372665 329.004974,234.742310 323.984283,235.111954 
z"/>
<path fill="#C9C7C7" opacity="1.000000" stroke="none" 
	d="
M418.052795,224.623642 
	C418.053864,226.421524 417.719269,227.907562 417.786835,229.375092 
	C417.924988,232.377319 418.279205,235.369614 418.306091,238.672058 
	C415.090057,241.237823 412.085388,243.463028 409.141754,245.766235 
	C405.689819,248.467117 402.290955,251.235855 398.429382,253.558044 
	C398.449646,249.796234 399.054993,246.462860 399.315826,243.102737 
	C399.476654,241.030823 399.112091,238.918106 398.982147,236.474579 
	C398.321228,234.748260 397.661530,233.371078 397.001801,231.993896 
	C400.642456,227.518097 404.283112,223.042313 407.984436,218.217087 
	C411.329803,220.012894 414.614471,222.158157 418.052795,224.623642 
z"/>
<path fill="#ADADAD" opacity="1.000000" stroke="none" 
	d="
M339.973999,234.015778 
	C341.077179,233.367081 342.391937,232.922028 343.246552,232.034088 
	C346.746033,228.398117 350.146698,224.663666 353.482758,220.876495 
	C354.196777,220.065918 354.489197,218.883942 354.992615,217.517700 
	C356.726013,217.114716 358.442627,217.067093 360.662445,217.402466 
	C361.799835,218.884277 362.434021,219.983078 363.064026,221.514099 
	C363.029755,223.966644 362.999664,225.986969 362.969604,228.007294 
	C361.054291,228.966354 358.901337,229.634338 357.282166,230.956146 
	C355.125458,232.716751 353.476135,235.083542 351.437744,237.008789 
	C349.512970,238.826752 347.614502,240.479584 345.882874,242.621353 
	C340.636169,249.110794 333.612274,254.163361 326.173279,259.166077 
	C326.763428,256.611816 327.353607,254.057587 327.934174,251.140793 
	C330.582794,247.049042 333.241028,243.319839 336.369751,239.209381 
	C337.884796,237.223999 338.929413,235.619904 339.973999,234.015778 
z"/>
<path fill="#636161" opacity="1.000000" stroke="none" 
	d="
M176.085052,247.990616 
	C175.766434,238.339432 177.681747,229.497284 184.768387,222.289429 
	C188.913269,218.073669 194.058121,216.475403 199.643890,216.075684 
	C203.276031,215.815750 206.951508,216.161331 210.561523,216.722687 
	C204.503723,222.748215 198.551437,228.353119 192.462311,233.805191 
	C187.082474,238.622177 181.550095,243.268799 176.085052,247.990616 
z"/>
<path fill="#E2ACAA" opacity="1.000000" stroke="none" 
	d="
M272.153381,256.999725 
	C271.139069,251.953888 270.124756,246.908066 269.114014,241.451721 
	C273.505066,235.262604 277.847046,229.448410 282.312958,223.731003 
	C283.393616,222.347473 284.883484,221.283569 286.525269,220.057877 
	C288.163574,220.533279 289.461853,221.023483 291.587585,221.826126 
	C288.814240,225.657272 286.206268,229.421326 283.426788,233.054184 
	C280.652313,236.680481 277.556091,240.069244 274.923126,243.790161 
	C274.093719,244.962250 273.765778,247.006348 274.122803,248.420441 
	C277.513794,261.851227 281.101929,275.232239 284.995361,290.000732 
	C279.511139,290.000732 274.193329,290.165466 268.896667,289.903381 
	C267.241943,289.821533 265.644226,288.587494 264.379486,287.308136 
	C268.353699,286.481171 271.965698,286.112183 275.585083,286.011688 
	C278.148773,285.940491 279.446167,284.904266 278.837769,282.358337 
	C277.689056,277.551178 276.351044,272.789215 275.069641,267.612122 
	C274.082855,263.810425 273.118103,260.405060 272.153381,256.999725 
z"/>
<path fill="#676767" opacity="1.000000" stroke="none" 
	d="
M175.916321,248.360199 
	C181.550095,243.268799 187.082474,238.622177 192.462311,233.805191 
	C198.551437,228.353119 204.503723,222.748215 210.834518,217.060104 
	C213.344513,217.689194 215.535492,218.467941 217.725189,219.877380 
	C213.732803,224.569672 209.741684,228.631287 205.367233,232.574554 
	C198.503815,231.939087 197.428864,232.860184 194.997284,241.013428 
	C190.166260,246.673828 185.422638,252.412674 180.454437,257.949982 
	C178.824524,259.766632 176.543655,262.013916 174.988007,257.228027 
	C175.218140,254.145584 175.482864,251.437698 175.916321,248.360199 
z"/>
<path fill="#E2ACAA" opacity="1.000000" stroke="none" 
	d="
M310.768158,245.941269 
	C311.965729,237.519196 313.163269,229.097107 314.590637,220.382965 
	C316.129089,220.545151 317.437714,220.999374 319.065979,221.564575 
	C318.041779,229.873016 317.039581,238.283569 315.959045,246.684036 
	C315.023285,253.958740 313.928253,261.213379 313.034698,268.492981 
	C312.259064,274.811462 311.736664,281.161560 310.915192,287.473297 
	C310.798431,288.370544 309.644989,289.821381 308.934875,289.843475 
	C303.444916,290.014130 297.944550,289.945312 292.452362,289.783142 
	C291.960754,289.768616 291.504181,288.569000 291.308014,287.237335 
	C294.700317,286.365479 297.820526,285.972778 300.930267,286.043091 
	C304.115479,286.115112 305.975525,285.075775 306.284393,281.717957 
	C306.797180,276.143555 307.407257,270.578094 307.998047,264.585571 
	C308.935883,258.088593 309.852020,252.014923 310.768158,245.941269 
z"/>
<path fill="#E0AAA6" opacity="1.000000" stroke="none" 
	d="
M167.496490,242.590988 
	C168.422821,235.025223 169.391953,227.898727 170.615082,220.479675 
	C172.181351,220.622971 173.493591,221.058807 175.565933,221.747086 
	C174.230087,232.051376 172.878860,242.519516 171.513916,252.985870 
	C170.694794,259.267059 169.747116,265.533722 169.058411,271.828918 
	C168.541473,276.554138 168.563629,281.346558 167.874237,286.039795 
	C167.664322,287.468872 165.962524,289.710327 164.814606,289.793457 
	C159.534485,290.175964 154.207672,289.961365 148.901443,289.818390 
	C148.579712,289.809723 148.291153,288.569397 148.317780,287.254639 
	C151.949600,286.408722 155.332779,286.575531 158.517990,285.860474 
	C160.152740,285.493530 162.426926,283.738983 162.699936,282.289093 
	C163.772369,276.593536 164.164154,270.769806 164.808701,264.993683 
	C164.937378,264.266296 165.066055,263.538940 165.396912,262.112640 
	C165.697784,259.291779 165.796494,257.169830 165.895172,255.047867 
	C166.443222,251.041992 166.991257,247.036118 167.496490,242.590988 
z"/>
<path fill="#E0AAA6" opacity="1.000000" stroke="none" 
	d="
M84.813507,269.671143 
	C82.671463,269.595612 79.636108,270.994080 79.941452,266.370422 
	C81.220665,256.372009 82.586334,246.767197 83.913185,237.156998 
	C84.295593,234.387283 84.566216,231.602112 84.845734,228.408997 
	C86.313843,217.079163 87.824310,206.164368 89.692635,195.042984 
	C91.294487,195.592560 92.538498,196.348740 93.798103,197.114395 
	C92.873917,205.633698 92.015251,214.049484 91.034157,222.450989 
	C90.068764,230.717972 89.014946,238.975159 87.933144,247.227875 
	C87.024895,254.156647 86.020554,261.072845 84.969650,268.610535 
	C84.880547,269.226501 84.813507,269.671143 84.813507,269.671143 
z"/>
<path fill="#454545" opacity="1.000000" stroke="none" 
	d="
M138.900787,227.997177 
	C134.069107,232.699814 129.326172,237.499573 124.351387,242.045609 
	C122.868988,243.400299 120.736626,244.043701 118.535309,245.023956 
	C119.438766,236.200821 120.708984,227.366730 122.044350,218.079544 
	C127.800758,217.703186 132.998993,217.363327 138.738861,217.404526 
	C139.153931,221.189453 139.027359,224.593307 138.900787,227.997177 
z"/>
<path fill="#8D8C8C" opacity="1.000000" stroke="none" 
	d="
M300.873840,209.105194 
	C297.615295,206.306503 295.365631,196.904404 297.135193,193.479797 
	C299.188782,189.505463 308.191284,186.273285 312.720734,188.208694 
	C314.193939,188.838181 315.192932,190.577469 316.711548,192.389099 
	C317.578430,199.168793 317.135010,205.174011 310.454529,207.891724 
	C307.573273,209.063889 304.085876,208.746109 300.873840,209.105194 
z"/>
<path fill="#A5A4A4" opacity="1.000000" stroke="none" 
	d="
M310.427490,245.968430 
	C309.852020,252.014923 308.935883,258.088593 307.669006,264.668091 
	C302.704987,269.676300 298.190674,274.287994 293.415466,278.611450 
	C292.056793,279.841583 289.939087,280.233429 288.169464,281.009705 
	C288.786530,274.627625 289.403595,268.245483 290.086731,261.439514 
	C296.453217,262.760956 297.426849,256.312500 300.972412,253.852036 
	C304.249664,251.577805 307.066956,248.640732 310.427490,245.968430 
z"/>
<path fill="#E2ACAA" opacity="1.000000" stroke="none" 
	d="
M362.979797,228.408432 
	C362.999664,225.986969 363.029755,223.966644 363.271729,221.340851 
	C363.951538,220.201752 364.419464,219.668091 364.887421,219.134445 
	C366.128754,220.042984 367.370117,220.951508 368.794037,221.993668 
	C370.569000,233.297760 365.194000,242.250107 357.937653,250.664124 
	C353.354553,255.978348 349.294525,261.743713 344.668335,267.805908 
	C343.553284,268.872375 342.769745,269.439606 341.986206,270.006836 
	C337.416168,268.779205 337.004852,267.305573 339.752747,263.710663 
	C347.045837,254.169571 354.287872,244.585876 361.323425,234.855179 
	C362.470978,233.268021 362.463593,230.845825 362.979797,228.408432 
z"/>
<path fill="#C0BFBF" opacity="1.000000" stroke="none" 
	d="
M341.970581,270.371765 
	C342.769745,269.439606 343.553284,268.872375 344.585480,268.153595 
	C348.618134,268.333954 352.447601,268.423492 356.162994,269.120850 
	C357.584717,269.387695 358.745575,271.044312 359.691711,272.607483 
	C358.619049,275.270721 357.283478,277.387299 357.259247,279.518768 
	C357.199951,284.726318 354.356537,286.185577 349.882874,285.972229 
	C344.248993,285.703552 338.619324,285.346436 332.987854,285.027496 
	C333.612793,283.605225 334.053040,282.060547 334.898438,280.784302 
	C337.157654,277.373566 339.590881,274.078033 341.970581,270.371765 
z"/>
<path fill="#727171" opacity="1.000000" stroke="none" 
	d="
M205.750549,232.692871 
	C209.741684,228.631287 213.732803,224.569672 217.883850,220.202240 
	C219.978592,221.003723 221.913437,222.111023 224.055756,223.792664 
	C224.537048,224.578064 224.810867,224.789139 225.084702,225.000214 
	C225.084702,225.000214 225.016144,224.987610 224.970215,225.378922 
	C225.314209,229.674301 225.780334,233.572739 226.069778,237.484253 
	C226.298965,240.581161 224.734787,241.818863 221.607101,241.909515 
	C218.047714,242.012680 214.503540,242.640030 210.952744,243.039520 
	C206.977081,243.334793 206.844772,240.701630 207.013718,237.107361 
	C206.602570,235.140579 206.176559,233.916718 205.750549,232.692871 
z"/>
<path fill="#C9C7C7" opacity="1.000000" stroke="none" 
	d="
M384.821594,264.031525 
	C383.739471,264.363708 382.324402,264.370331 381.629425,265.081085 
	C377.240997,269.569031 373.012207,274.213135 368.406677,278.905273 
	C367.380280,275.791473 366.476471,272.605011 366.041748,269.355774 
	C365.716217,266.922638 365.994934,264.408691 366.072693,261.468750 
	C368.662811,259.602295 371.386566,258.463409 373.662384,256.734711 
	C377.676605,253.685532 381.417572,250.276596 385.572021,247.418259 
	C385.521240,253.222687 385.171417,258.627106 384.821594,264.031525 
z"/>
<path fill="#E2ACAA" opacity="1.000000" stroke="none" 
	d="
M185.398224,284.676636 
	C202.576996,293.711975 222.884323,280.716309 223.086609,260.493073 
	C224.356766,261.516754 225.780426,262.861206 226.769196,264.472473 
	C227.478363,265.628113 228.092865,267.207489 227.917847,268.483734 
	C226.130310,281.519104 217.604843,290.213928 202.879623,291.082642 
	C194.957916,291.550049 187.493515,291.043701 181.770782,284.392517 
	C182.922256,284.210754 183.967514,284.392426 185.398224,284.676636 
z"/>
<path fill="#E0AAA6" opacity="1.000000" stroke="none" 
	d="
M138.939102,228.419617 
	C139.027359,224.593307 139.153931,221.189453 139.206696,217.421432 
	C139.704178,217.230331 140.515244,217.223602 140.803864,217.608597 
	C141.859543,219.016678 142.741165,220.555237 143.688354,222.044647 
	C144.205780,221.894073 144.723190,221.743500 145.240616,221.592911 
	C143.986115,230.730591 142.423813,239.839874 141.577408,249.015198 
	C140.934891,255.980362 141.203674,263.029602 141.488876,270.088104 
	C137.676620,271.666321 135.398666,270.086975 134.766495,265.340607 
	C136.095581,252.926437 137.536499,240.884262 138.939102,228.419617 
z"/>
<path fill="#676767" opacity="1.000000" stroke="none" 
	d="
M164.457947,265.009155 
	C164.164154,270.769806 163.772369,276.593536 162.699936,282.289093 
	C162.426926,283.738983 160.152740,285.493530 158.517990,285.860474 
	C155.332779,286.575531 151.949600,286.408722 148.279816,286.815186 
	C147.911240,287.023254 147.496613,287.025787 147.042755,286.804138 
	C146.003036,285.181366 145.417145,283.780212 144.831253,282.379059 
	C150.112503,275.323486 155.923019,268.855835 164.457947,265.009155 
z"/>
<path fill="#979696" opacity="1.000000" stroke="none" 
	d="
M271.758148,256.998596 
	C273.118103,260.405060 274.082855,263.810425 274.764801,267.762512 
	C271.821045,271.141418 269.361389,274.209137 266.424835,276.718872 
	C264.614136,278.266388 262.076202,278.963013 259.864746,280.041656 
	C258.920197,275.979370 257.975647,271.917114 256.993042,267.063599 
	C257.000275,265.509766 257.045624,264.747162 257.090973,263.984528 
	C259.661011,262.887878 262.277832,261.887329 264.787170,260.665985 
	C267.040466,259.569244 269.175629,258.229828 271.758148,256.998596 
z"/>
<path fill="#ADADAD" opacity="1.000000" stroke="none" 
	d="
M288.112976,281.260223 
	C289.939087,280.233429 292.056793,279.841583 293.415466,278.611450 
	C298.190674,274.287994 302.704987,269.676300 307.647308,265.091431 
	C307.407257,270.578094 306.797180,276.143555 306.284393,281.717957 
	C305.975525,285.075775 304.115479,286.115112 300.930267,286.043091 
	C297.820526,285.972778 294.700317,286.365479 291.272400,286.832794 
	C290.960083,287.110687 290.482025,286.983795 290.233948,286.573059 
	C289.380432,284.778809 288.774994,283.395294 288.169556,282.011749 
	C288.131866,281.844757 288.094147,281.677765 288.112976,281.260223 
z"/>
<path fill="#E0AAA6" opacity="1.000000" stroke="none" 
	d="
M62.259811,286.339478 
	C68.166641,286.034210 74.132408,286.025513 81.024261,286.033997 
	C89.041710,286.051300 96.135117,285.952881 103.223442,286.099792 
	C106.080574,286.159027 107.510353,285.166260 107.760208,282.278839 
	C108.114334,278.186279 108.623528,274.107178 109.069473,270.010315 
	C109.072487,269.998291 109.103516,269.994415 109.103516,269.994415 
	C110.211060,271.019623 111.373146,271.993408 112.406021,273.088989 
	C113.042595,273.764282 113.993118,274.672882 113.925957,275.395233 
	C113.527946,279.676300 112.873459,283.933533 111.649368,288.569519 
	C95.248810,288.968079 79.504074,288.995941 63.759346,289.023773 
	C63.279144,288.227875 62.798946,287.431976 62.259811,286.339478 
z"/>
<path fill="#E0AAA6" opacity="1.000000" stroke="none" 
	d="
M205.367218,232.574539 
	C206.176559,233.916718 206.602570,235.140579 206.996552,236.703918 
	C203.398315,236.746246 201.557114,238.499405 200.971054,241.926163 
	C199.476990,250.662064 197.925034,259.388062 196.272736,268.491150 
	C195.278305,268.762970 193.711807,268.821045 193.646301,268.535187 
	C193.111435,266.201111 192.394363,263.761017 192.605103,261.432098 
	C193.196976,254.891174 194.206345,248.388016 195.024170,241.441681 
	C197.428864,232.860184 198.503815,231.939087 205.367218,232.574539 
z"/>
<path fill="#E2ACAA" opacity="1.000000" stroke="none" 
	d="
M253.965668,227.020370 
	C254.705612,221.654495 255.445541,216.288635 256.158905,210.488815 
	C256.947083,205.505905 257.761841,200.956955 258.857086,196.128571 
	C260.283752,195.939438 261.429932,196.029739 263.204254,196.169525 
	C262.925812,199.211807 262.742035,202.248581 262.353973,205.259033 
	C261.350372,213.044952 260.256622,220.819275 259.567261,228.722809 
	C257.884705,231.875519 255.835587,234.904877 253.767639,237.921341 
	C253.731903,237.973465 253.440170,237.911011 253.319962,237.827286 
	C253.199402,237.743301 253.144104,237.565582 252.967896,237.205109 
	C253.232208,234.248016 253.588852,231.514786 253.971527,228.139618 
	C253.997543,227.497696 253.965668,227.020370 253.965668,227.020370 
z"/>
<path fill="#A5A4A4" opacity="1.000000" stroke="none" 
	d="
M259.917908,280.456543 
	C262.076202,278.963013 264.614136,278.266388 266.424835,276.718872 
	C269.361389,274.209137 271.821045,271.141418 274.786865,268.158875 
	C276.351044,272.789215 277.689056,277.551178 278.837769,282.358337 
	C279.446167,284.904266 278.148773,285.940491 275.585083,286.011688 
	C271.965698,286.112183 268.353699,286.481171 264.353302,286.899353 
	C258.906006,287.406921 260.220520,283.634399 259.917908,280.456543 
z"/>
<path fill="#E2ACAA" opacity="1.000000" stroke="none" 
	d="
M332.660004,285.274658 
	C338.619324,285.346436 344.248993,285.703552 349.882874,285.972229 
	C354.356537,286.185577 357.199951,284.726318 357.259247,279.518768 
	C357.283478,277.387299 358.619049,275.270721 359.716370,273.021790 
	C361.045807,273.766510 362.863953,274.654846 362.845917,275.504120 
	C362.752625,279.889343 362.189026,284.264587 360.961853,288.833008 
	C345.786987,289.011108 331.439819,288.999542 317.092651,288.987946 
	C317.043671,288.587463 316.994690,288.186981 316.938599,287.483032 
	C320.274719,286.778595 323.615662,286.357056 326.962097,285.984985 
	C328.747223,285.786499 330.541840,285.673401 332.660004,285.274658 
z"/>
<path fill="#E0AAA6" opacity="1.000000" stroke="none" 
	d="
M257.047760,263.627625 
	C257.045624,264.747162 257.000275,265.509766 256.952606,266.653748 
	C252.861877,269.895569 253.895630,274.548309 253.073242,278.495941 
	C252.378632,281.830261 252.246490,285.281769 251.036697,288.848907 
	C244.155899,288.979218 238.103821,288.942017 232.051727,288.904846 
	C232.003830,288.548065 231.955933,288.191254 231.996445,287.240997 
	C232.113205,286.430847 232.141571,286.214142 232.169952,285.997406 
	C235.470642,285.989716 238.786606,285.778351 242.068253,286.024475 
	C246.434677,286.351898 247.493118,284.252686 248.079666,280.250671 
	C249.016922,273.855927 250.844788,267.584564 252.456055,261.302063 
	C252.762985,260.105316 253.810715,259.098541 255.181168,256.973816 
	C256.122803,260.225677 256.563660,261.748199 257.047760,263.627625 
z"/>
<path fill="#E2ACAA" opacity="1.000000" stroke="none" 
	d="
M301.049896,209.431519 
	C304.085876,208.746109 307.573273,209.063889 310.454529,207.891724 
	C317.135010,205.174011 317.578430,199.168793 317.066895,192.525085 
	C324.363464,199.918304 324.108124,204.816895 316.273193,211.282166 
	C310.832642,215.771622 308.522064,214.735535 301.049896,209.431519 
z"/>
<path fill="#E0AAA6" opacity="1.000000" stroke="none" 
	d="
M210.986298,243.447784 
	C214.503540,242.640030 218.047714,242.012680 221.607101,241.909515 
	C224.734787,241.818863 226.298965,240.581161 226.069778,237.484253 
	C225.780334,233.572739 225.314209,229.674301 224.981659,225.346008 
	C232.378387,229.527573 231.059982,236.865494 230.875320,243.785583 
	C230.856003,244.509995 229.766190,245.806549 229.150024,245.820496 
	C223.559433,245.947006 217.962387,245.893631 212.372055,245.729080 
	C211.903351,245.715302 211.469757,244.508545 210.986298,243.447784 
z"/>
<path fill="#E0AAA6" opacity="1.000000" stroke="none" 
	d="
M144.482269,282.333496 
	C145.417145,283.780212 146.003036,285.181366 146.838806,286.841370 
	C140.703033,292.645996 131.863678,292.497986 122.988228,286.382263 
	C124.931038,286.262665 127.060829,286.331787 129.143158,286.682617 
	C134.877792,287.648712 139.524994,285.071808 144.482269,282.333496 
z"/>
<path fill="#E2ACAA" opacity="1.000000" stroke="none" 
	d="
M339.510162,234.009399 
	C338.929413,235.619904 337.884796,237.223999 336.506104,238.882599 
	C333.225311,238.622192 330.249786,238.461258 327.345886,237.917694 
	C326.159515,237.695618 325.128265,236.645050 324.005371,235.541687 
	C329.004974,234.742310 334.025635,234.372665 339.510162,234.009399 
z"/>
<path fill="#DAD7D7" opacity="1.000000" stroke="none" 
	d="
M64.006470,289.401245 
	C79.504074,288.995941 95.248810,288.968079 111.457108,288.943726 
	C111.498375,289.302429 111.075577,289.968628 110.653839,289.967957 
	C95.187027,289.943329 79.720322,289.856750 64.006470,289.401245 
z"/>
<path fill="#DAD7D7" opacity="1.000000" stroke="none" 
	d="
M317.207947,289.415619 
	C331.439819,288.999542 345.786987,289.011108 360.606567,289.039551 
	C360.408813,289.375153 359.738647,289.971649 359.068512,289.971558 
	C345.153442,289.969482 331.238342,289.899689 317.207947,289.415619 
z"/>
<path fill="#878686" opacity="1.000000" stroke="none" 
	d="
M85.266968,269.770325 
	C84.813507,269.671143 84.880547,269.226501 84.990585,269.030212 
	C92.970566,268.951141 100.840515,269.068390 108.906990,269.590027 
	C109.103516,269.994415 109.072487,269.998291 108.598862,270.023926 
	C103.410484,270.051605 98.695724,270.053650 93.980972,270.055695 
	C91.227463,269.993622 88.473946,269.931580 85.266968,269.770325 
z"/>
<path fill="#DAD7D7" opacity="1.000000" stroke="none" 
	d="
M232.142700,289.349213 
	C238.103821,288.942017 244.155899,288.979218 250.684738,289.044861 
	C244.852203,289.313385 238.542938,289.553467 232.142700,289.349213 
z"/>
<path fill="#B3B2B2" opacity="1.000000" stroke="none" 
	d="
M364.941833,218.721283 
	C364.419464,219.668091 363.951538,220.201752 363.275879,220.908630 
	C362.434021,219.983078 361.799835,218.884277 361.086060,217.476227 
	C362.336365,217.547363 363.666321,217.927750 364.941833,218.721283 
z"/>
<path fill="#A5A4A4" opacity="1.000000" stroke="none" 
	d="
M288.020599,282.314697 
	C288.774994,283.395294 289.380432,284.778809 289.998596,286.497101 
	C289.298096,285.427124 288.584869,284.022369 288.020599,282.314697 
z"/>
<path fill="#323030" opacity="1.000000" stroke="none" 
	d="
M65.988976,228.432465 
	C66.179001,229.511963 66.333817,231.004776 66.246994,232.746582 
	C65.988159,231.612305 65.970955,230.229034 65.988976,228.432465 
z"/>
<path fill="#DAD7D7" opacity="1.000000" stroke="none" 
	d="
M231.765320,285.967896 
	C232.141571,286.214142 232.113205,286.430847 232.026031,286.970673 
	C231.030075,287.096405 230.092926,286.898987 229.049484,286.354065 
	C229.749008,285.983856 230.554855,285.961121 231.765320,285.967896 
z"/>
<path fill="#827F7F" opacity="1.000000" stroke="none" 
	d="
M179.968323,283.360901 
	C180.390640,283.268372 180.973694,283.480225 181.697769,283.980957 
	C181.268875,284.068329 180.698959,283.866791 179.968323,283.360901 
z"/>
<path fill="#E0AAA6" opacity="1.000000" stroke="none" 
	d="
M225.010468,224.740082 
	C224.810867,224.789139 224.537048,224.578064 224.171753,224.113174 
	C224.365601,224.066208 224.650909,224.273071 225.010468,224.740082 
z"/>
<path fill="#E2ACAA" opacity="1.000000" stroke="none" 
	d="
M384.861023,264.425659 
	C385.171417,258.627106 385.521240,253.222687 385.934753,247.405167 
	C386.322784,244.922989 386.647156,242.853897 386.979553,240.142212 
	C386.987549,239.499619 386.991211,239.008133 386.991211,239.008133 
	C387.773956,233.695267 390.828705,231.356186 396.582397,231.997360 
	C397.661530,233.371078 398.321228,234.748260 398.611450,236.550140 
	C393.717194,237.546967 392.632355,241.177032 392.088806,244.664581 
	C390.839691,252.679443 390.022461,260.761597 389.029907,268.816437 
	C388.162170,269.223633 387.294403,269.630829 386.426636,270.037994 
	C385.917908,268.298584 385.409210,266.559174 384.861023,264.425659 
z"/>
<path fill="#C9C7C7" opacity="1.000000" stroke="none" 
	d="
M386.862244,239.105408 
	C386.991211,239.008133 386.987549,239.499619 386.973724,239.744751 
	C386.626556,239.782669 386.550995,239.520248 386.862244,239.105408 
z"/>
<path fill="#676767" opacity="1.000000" stroke="none" 
	d="
M165.673462,255.313461 
	C165.796494,257.169830 165.697784,259.291779 165.390686,261.742310 
	C165.272110,259.906921 165.361923,257.742981 165.673462,255.313461 
z"/>
<path fill="#DAD7D7" opacity="1.000000" stroke="none" 
	d="
M416.508240,255.023254 
	C416.268463,258.930115 415.833618,262.880219 415.046936,266.758972 
	C412.461517,279.506287 400.938202,287.403564 390.395782,286.114838 
	C388.923035,285.934784 387.410248,286.082123 385.451172,286.067535 
	C384.842651,284.601471 384.698975,283.145782 384.501221,281.141846 
	C390.983124,281.872223 394.110443,278.264923 396.511108,272.942566 
	C397.579437,270.574005 400.430084,269.022369 402.431458,267.058899 
	C406.246124,263.316437 410.002930,259.514221 413.863434,255.820084 
	C414.392578,255.313751 415.377899,255.284149 416.508240,255.023254 
z"/>
<path fill="#000000" opacity="1.000000" stroke="none" 
	d="
M389.362640,268.934570 
	C390.022461,260.761597 390.839691,252.679443 392.088806,244.664581 
	C392.632355,241.177032 393.717194,237.546967 398.612671,236.899292 
	C399.112091,238.918106 399.476654,241.030823 399.315826,243.102737 
	C399.054993,246.462860 398.449646,249.796234 398.076355,253.575287 
	C397.425659,257.976410 397.212982,262.158813 395.711670,265.811584 
	C395.042023,267.440948 391.780518,268.005096 389.362640,268.934570 
z"/>
<path fill="#878686" opacity="1.000000" stroke="none" 
	d="
M253.840607,227.112000 
	C253.965668,227.020370 253.997543,227.497696 253.954865,227.732635 
	C253.600525,227.761551 253.534973,227.506897 253.840607,227.112000 
z"/>
<path fill="#525252" opacity="1.000000" stroke="none" 
	d="
M93.929230,270.393311 
	C98.695724,270.053650 103.410484,270.051605 108.595840,270.035950 
	C108.623528,274.107178 108.114334,278.186279 107.760208,282.278839 
	C107.510353,285.166260 106.080574,286.159027 103.223442,286.099792 
	C96.135117,285.952881 89.041710,286.051300 81.490723,285.971252 
	C85.313240,280.837860 89.595367,275.784424 93.929230,270.393311 
z"/>
</svg>